<svg width="28" height="28" viewBox="0 0 28 28" fill="none" xmlns="http://www.w3.org/2000/svg">
<path d="M9.91634 22.1666H9.33301C4.66634 22.1666 2.33301 20.9999 2.33301 15.1666V9.33325C2.33301 4.66659 4.66634 2.33325 9.33301 2.33325H18.6663C23.333 2.33325 25.6663 4.66659 25.6663 9.33325V15.1666C25.6663 19.8333 23.333 22.1666 18.6663 22.1666H18.083C17.7213 22.1666 17.3713 22.3416 17.1497 22.6333L15.3997 24.9666C14.6297 25.9933 13.3697 25.9933 12.5997 24.9666L10.8497 22.6333C10.663 22.3766 10.2313 22.1666 9.91634 22.1666Z" stroke="#828282" stroke-width="1.5" stroke-miterlimit="10" stroke-linecap="round" stroke-linejoin="round"/>
<path d="M8.16699 9.33325H19.8337" stroke="#828282" stroke-width="1.5" stroke-linecap="round" stroke-linejoin="round"/>
<path d="M8.16699 15.1667H15.167" stroke="#828282" stroke-width="1.5" stroke-linecap="round" stroke-linejoin="round"/>
</svg>
