<svg width="28" height="28" viewBox="0 0 28 28" fill="none" xmlns="http://www.w3.org/2000/svg">
<path d="M2.33301 15.1316V8.15492C2.33301 4.93492 4.94634 2.33325 8.16634 2.33325H19.833C23.053 2.33325 25.6663 4.93492 25.6663 8.15492V16.2983C25.6663 19.5066 23.053 22.1083 19.833 22.1083H18.083C17.7213 22.1083 17.3713 22.2833 17.1497 22.5749L15.3997 24.8966C14.6297 25.9233 13.3697 25.9233 12.5997 24.8966L10.8497 22.5749C10.663 22.3183 10.243 22.1083 9.91634 22.1083H8.16634C4.94634 22.1083 2.33301 19.5066 2.33301 16.2983V15.1316Z" fill="#00A6B2"/>
<path d="M19.8337 10.2083H8.16699C7.68866 10.2083 7.29199 9.81159 7.29199 9.33325C7.29199 8.85492 7.68866 8.45825 8.16699 8.45825H19.8337C20.312 8.45825 20.7087 8.85492 20.7087 9.33325C20.7087 9.81159 20.312 10.2083 19.8337 10.2083Z" fill="#F2F2F2"/>
<path d="M15.167 16.0417H8.16699C7.68866 16.0417 7.29199 15.6451 7.29199 15.1667C7.29199 14.6884 7.68866 14.2917 8.16699 14.2917H15.167C15.6453 14.2917 16.042 14.6884 16.042 15.1667C16.042 15.6451 15.6453 16.0417 15.167 16.0417Z" fill="#F2F2F2"/>
</svg>
