<svg width="20" height="20" viewBox="0 0 20 20" fill="none" xmlns="http://www.w3.org/2000/svg">
<path d="M19.8055 8.1348H19V8.09527H10V11.9048H15.6515C14.827 14.1224 12.6115 15.7143 10 15.7143C6.6865 15.7143 4 13.1558 4 10C4 6.84432 6.6865 4.28575 10 4.28575C11.5295 4.28575 12.921 4.83527 13.9805 5.73289L16.809 3.03908C15.023 1.45385 12.634 0.476227 10 0.476227C4.4775 0.476227 0 4.74051 0 10C0 15.2596 4.4775 19.5238 10 19.5238C15.5225 19.5238 20 15.2596 20 10C20 9.36146 19.931 8.73813 19.8055 8.1348Z" fill="#FFC107"/>
<path d="M1.15332 5.56718L4.43882 7.86194C5.32782 5.76575 7.48082 4.28575 10.0003 4.28575C11.5298 4.28575 12.9213 4.83527 13.9808 5.73289L16.8093 3.03908C15.0233 1.45385 12.6343 0.476227 10.0003 0.476227C6.15932 0.476227 2.82832 2.54146 1.15332 5.56718Z" fill="#FF3D00"/>
<path d="M10.0002 19.5239C12.5832 19.5239 14.9302 18.5825 16.7047 17.0516L13.6097 14.5573C12.6057 15.2816 11.3577 15.7144 10.0002 15.7144C7.39916 15.7144 5.19066 14.1349 4.35866 11.9306L1.09766 14.3235C2.75266 17.4077 6.11366 19.5239 10.0002 19.5239Z" fill="#4CAF50"/>
<path d="M19.8055 8.1348H19V8.09528H10V11.9048H15.6515C15.2555 12.97 14.536 13.8886 13.608 14.5577C13.6085 14.5572 13.609 14.5572 13.6095 14.5567L16.7045 17.051C16.4855 17.2405 20 14.7619 20 10C20 9.36147 19.931 8.73813 19.8055 8.1348Z" fill="#1976D2"/>
</svg>
