<svg width="31" height="30" viewBox="0 0 31 30" fill="none" xmlns="http://www.w3.org/2000/svg">
<path d="M27.7129 17.0645V26.5908C27.7129 28.2388 26.4963 29.5 25.0859 29.5H6.32812C4.91796 29.4998 3.70215 28.2387 3.70215 26.5908V17.0645L15.707 6.12988L27.7129 17.0645ZM13.2061 15.8633C12.1993 15.8635 11.4561 16.7397 11.4561 17.7275V27.7725H19.959V17.7275C19.959 16.7396 19.2149 15.8633 18.208 15.8633H13.2061ZM15.707 0.5C16.1513 0.5 16.6008 0.664171 16.9736 1.00391H16.9746L24.124 7.51758L24.9609 8.28027V4.77246C24.9611 4.2537 25.3371 3.90918 25.7119 3.90918H26.9619C27.3367 3.90918 27.7128 4.2537 27.7129 4.77246V10.7881L27.876 10.9365L29.8848 12.7676C30.1586 13.0171 30.2713 13.4242 30.1738 13.7637L30.1191 13.9043C29.9627 14.215 29.7006 14.3486 29.4619 14.3486C29.3438 14.3486 29.2224 14.3165 29.1094 14.2461L28.999 14.1621L16.2461 2.54102H16.2451C15.9376 2.26145 15.4775 2.2615 15.1699 2.54102H15.1689L2.41602 14.1602C2.084 14.4627 1.56684 14.4032 1.31055 13.9316C1.11372 13.5691 1.21265 13.0565 1.53809 12.7598H1.53906L14.4404 1.00391C14.8131 0.664255 15.2629 0.5001 15.707 0.5Z" fill="white" stroke="#878787"/>
</svg>
