<svg width="31" height="30" viewBox="0 0 31 30" fill="none" xmlns="http://www.w3.org/2000/svg">
<path d="M15.7074 0C15.1377 0 14.5682 0.21081 14.104 0.633878L1.20186 12.3899C0.723539 12.8256 0.553283 13.5854 0.870915 14.1704C1.27546 14.9149 2.17069 15.0604 2.75281 14.5299L15.5059 2.91104C15.6229 2.80468 15.792 2.80468 15.9089 2.91104L28.6621 14.5312C28.8959 14.7447 29.1793 14.8482 29.462 14.8482C29.8965 14.8482 30.3277 14.6023 30.5659 14.1291C30.8567 13.5509 30.6855 12.8206 30.2216 12.3979L28.2127 10.5669V4.77273C28.2127 4.01932 27.6531 3.40909 26.9621 3.40909H25.7116C25.0207 3.40909 24.4611 4.01932 24.4611 4.77273V7.14844L17.3109 0.633878C16.8466 0.21081 16.2772 0 15.7074 0ZM15.7074 5.45455L3.20221 16.8444V26.5909C3.20221 28.4734 4.60217 30 6.32852 30H25.0864C26.8127 30 28.2127 28.4734 28.2127 26.5909V16.8444L15.7074 5.45455ZM13.2064 16.3636H18.2085C18.8994 16.3636 19.459 16.9739 19.459 17.7273V27.2727H11.9559V17.7273C11.9559 16.9739 12.5155 16.3636 13.2064 16.3636Z" fill="#00A6B2"/>
</svg>
