<?xml version="1.0" encoding="iso-8859-1"?>
<!-- Uploaded to: SVG Repo, www.svgrepo.com, Generator: SVG Repo Mixer Tools -->
<svg version="1.1" id="Layer_1" xmlns="http://www.w3.org/2000/svg" xmlns:xlink="http://www.w3.org/1999/xlink" 
	 viewBox="0 0 297 297" xml:space="preserve">
<g>
	<g id="XMLID_48_">
		<g>
			<polygon style="fill:#BDC3C7;" points="179.08,43.96 190.84,67.48 106.17,67.48 117.92,43.96 			"/>
			<rect x="35.53" y="102.75" style="fill:#BDC3C7;" width="57.25" height="23.51"/>
			<path style="fill:#D95459;" d="M286.78,103.3v124.14c0,14.11-11.49,25.6-25.6,25.6H35.83c-14.12,0-25.6-11.49-25.6-25.6V103.3
				c0-14.11,11.48-25.6,25.6-25.6h225.35C275.29,77.7,286.78,89.19,286.78,103.3z M271.7,165.37c0-40.03-32.56-72.59-72.59-72.59
				c-40.02,0-72.59,32.56-72.59,72.59c0,40.02,32.57,72.59,72.59,72.59C239.14,237.96,271.7,205.39,271.7,165.37z M103.01,131.38
				V97.64c0-2.83-2.29-5.12-5.11-5.12H30.42c-2.82,0-5.11,2.29-5.11,5.12v33.74c0,2.82,2.29,5.11,5.11,5.11H97.9
				C100.72,136.49,103.01,134.2,103.01,131.38z M103.01,156.93c0-2.82-2.29-5.11-5.11-5.11H30.42c-2.82,0-5.11,2.29-5.11,5.11
				c0,2.83,2.29,5.12,5.11,5.12H97.9C100.72,162.05,103.01,159.76,103.01,156.93z"/>
			<path style="fill:#95A5A6;" d="M199.11,103c34.39,0,62.37,27.98,62.37,62.37s-27.98,62.36-62.37,62.36s-62.36-27.97-62.36-62.36
				S164.72,103,199.11,103z M246.4,165.37c0-26.07-21.22-47.29-47.29-47.29s-47.28,21.22-47.28,47.29s21.21,47.28,47.28,47.28
				S246.4,191.44,246.4,165.37z"/>
			<path style="fill:#BDC3C7;" d="M199.11,128.31c20.44,0,37.06,16.62,37.06,37.06c0,20.43-16.62,37.06-37.06,37.06
				c-20.43,0-37.06-16.63-37.06-37.06C162.05,144.93,178.68,128.31,199.11,128.31z"/>
			<path d="M297,103.3v124.14c0,19.75-16.07,35.82-35.82,35.82H35.83C16.07,263.26,0,247.19,0,227.44V103.3
				c0-19.75,16.07-35.82,35.83-35.82h58.91l15.45-30.92c0.87-1.73,2.64-2.82,4.57-2.82h67.48c1.94,0,3.71,1.09,4.57,2.82
				l15.46,30.92h58.91C280.93,67.48,297,83.55,297,103.3z M286.78,227.44V103.3c0-14.11-11.49-25.6-25.6-25.6H35.83
				c-14.12,0-25.6,11.49-25.6,25.6v124.14c0,14.11,11.48,25.6,25.6,25.6h225.35C275.29,253.04,286.78,241.55,286.78,227.44z
				 M190.84,67.48l-11.76-23.52h-61.16l-11.75,23.52H190.84z"/>
			<path d="M199.11,92.78c40.03,0,72.59,32.56,72.59,72.59c0,40.02-32.56,72.59-72.59,72.59c-40.02,0-72.59-32.57-72.59-72.59
				C126.52,125.34,159.09,92.78,199.11,92.78z M261.48,165.37c0-34.39-27.98-62.37-62.37-62.37s-62.36,27.98-62.36,62.37
				s27.97,62.36,62.36,62.36S261.48,199.76,261.48,165.37z"/>
			<path d="M199.11,118.08c26.07,0,47.29,21.22,47.29,47.29c0,26.07-21.22,47.28-47.29,47.28s-47.28-21.21-47.28-47.28
				S173.04,118.08,199.11,118.08z M236.17,165.37c0-20.44-16.62-37.06-37.06-37.06c-20.43,0-37.06,16.62-37.06,37.06
				c0,20.43,16.63,37.06,37.06,37.06C219.55,202.43,236.17,185.8,236.17,165.37z"/>
			<path d="M103.01,97.64v33.74c0,2.82-2.29,5.11-5.11,5.11H30.42c-2.82,0-5.11-2.29-5.11-5.11V97.64c0-2.83,2.29-5.12,5.11-5.12
				H97.9C100.72,92.52,103.01,94.81,103.01,97.64z M92.78,126.26v-23.51H35.53v23.51H92.78z"/>
			<path d="M97.9,151.82c2.82,0,5.11,2.29,5.11,5.11c0,2.83-2.29,5.12-5.11,5.12H30.42c-2.82,0-5.11-2.29-5.11-5.12
				c0-2.82,2.29-5.11,5.11-5.11H97.9z"/>
		</g>
	</g>
</g>
</svg>