<svg width="28" height="28" viewBox="0 0 28 28" fill="none" xmlns="http://www.w3.org/2000/svg">
<path d="M14.187 12.6816C14.0703 12.6699 13.9303 12.6699 13.802 12.6816C11.0253 12.5883 8.82031 10.3133 8.82031 7.51325C8.82031 4.65492 11.1303 2.33325 14.0003 2.33325C16.8586 2.33325 19.1803 4.65492 19.1803 7.51325C19.1686 10.3133 16.9636 12.5883 14.187 12.6816Z" fill="#00A6B2"/>
<path d="M8.35285 16.9867C5.52952 18.8767 5.52952 21.9567 8.35285 23.8351C11.5612 25.9817 16.8229 25.9817 20.0312 23.8351C22.8545 21.9451 22.8545 18.8651 20.0312 16.9867C16.8345 14.8517 11.5729 14.8517 8.35285 16.9867Z" fill="#00A6B2"/>
</svg>
