<svg width="17" height="15" viewBox="0 0 17 15" fill="none" xmlns="http://www.w3.org/2000/svg">
<path d="M8.34006 10.2572C7.74978 10.2572 7.15256 10.1358 6.68728 9.8987L2.50673 7.73142C1.72895 7.32885 1.26367 6.65054 1.26367 5.91157C1.26367 5.1726 1.72895 4.49429 2.50673 4.09171L6.69423 1.92995C7.62478 1.45017 9.07617 1.45017 9.99978 1.93546L14.1595 4.10274C14.9303 4.50532 15.3956 5.18362 15.3956 5.91708C15.3956 6.65054 14.9303 7.32885 14.1595 7.73142L9.99978 9.8987C9.5345 10.1413 8.93728 10.2572 8.34006 10.2572ZM8.34006 2.3987C7.94423 2.3987 7.54839 2.47039 7.26367 2.6248L3.08312 4.78657C2.59701 5.04024 2.31228 5.44833 2.31228 5.91157C2.31228 6.3748 2.59006 6.78289 3.08312 7.03657L7.26367 9.20385C7.84006 9.50164 8.85395 9.50164 9.43034 9.20385L13.5901 7.03657C14.0762 6.78289 14.3539 6.3748 14.3539 5.91157C14.3539 5.44833 14.0762 5.04024 13.5901 4.78657L9.43034 2.61929C9.13867 2.4759 8.74284 2.3987 8.34006 2.3987Z" fill="#333333"/>
<path d="M8.33327 13.4285C8.02771 13.4285 7.71521 13.3954 7.46521 13.3292L5.24994 12.7446C4.20132 12.4689 3.37493 11.559 3.38188 10.6821L3.38882 8.09573C3.38882 7.86963 3.62494 7.68213 3.90966 7.68213C4.19438 7.68213 4.43049 7.86963 4.43049 8.09573L4.42355 10.6821C4.42355 11.2005 4.96521 11.7961 5.58327 11.9615L7.79855 12.5461C8.07632 12.6178 8.59021 12.6178 8.86799 12.5461L11.0833 11.9615C11.7013 11.7961 12.243 11.2005 12.243 10.6876V8.12882C12.243 7.90272 12.4791 7.71522 12.7638 7.71522C13.0485 7.71522 13.2847 7.90272 13.2847 8.12882V10.6876C13.2847 11.5645 12.4652 12.4689 11.4166 12.7501L9.20132 13.3347C8.95132 13.3954 8.63882 13.4285 8.33327 13.4285Z" fill="#333333"/>
<path d="M14.8612 9.56816C14.5764 9.56816 14.3403 9.38066 14.3403 9.15456V5.84573C14.3403 5.61963 14.5764 5.43213 14.8612 5.43213C15.1459 5.43213 15.382 5.61963 15.382 5.84573V9.15456C15.382 9.38066 15.1459 9.56816 14.8612 9.56816Z" fill="#333333"/>
</svg>
