<svg width="160" height="160" viewBox="0 0 160 160" fill="none" xmlns="http://www.w3.org/2000/svg">
<rect x="0.5" y="0.5" width="159" height="159" rx="9.5" fill="#FAFAFA"/>
<rect x="0.5" y="0.5" width="159" height="159" rx="9.5" stroke="#D3D6DA" stroke-dasharray="8 8"/>
<path d="M74.75 35.2486L80 30L85.25 35.2486" stroke="#A0A8B0" stroke-width="2" stroke-linecap="round" stroke-linejoin="round"/>
<path d="M80 44.0002V30.0039" stroke="#A0A8B0" stroke-width="2" stroke-linecap="round" stroke-linejoin="round"/>
<path d="M91 44V51C91 51.2652 90.8946 51.5196 90.7071 51.7071C90.5196 51.8946 90.2652 52 90 52H70C69.7348 52 69.4804 51.8946 69.2929 51.7071C69.1054 51.5196 69 51.2652 69 51V44" stroke="#A0A8B0" stroke-width="2" stroke-linecap="round" stroke-linejoin="round"/>
<rect x="35.5" y="65" width="89" height="30" rx="6" fill="#00A6B2"/>
<path d="M43.654 86L47.322 75.57H49.366L53.034 86H51.27L50.472 83.662H46.23L45.418 86H43.654ZM46.706 82.192H49.968L48.12 76.732H48.582L46.706 82.192ZM57.3439 86.168C56.6159 86.168 55.9626 85.9953 55.3839 85.65C54.8146 85.2953 54.3619 84.8193 54.0259 84.222C53.6993 83.6247 53.5359 82.9527 53.5359 82.206C53.5359 81.4593 53.7039 80.7873 54.0399 80.19C54.3759 79.5927 54.8286 79.1213 55.3979 78.776C55.9673 78.4307 56.6113 78.258 57.3299 78.258C57.9366 78.258 58.4733 78.3793 58.9399 78.622C59.4066 78.8647 59.7753 79.2007 60.0459 79.63L59.8079 79.994V75.402H61.3759V86H59.8779V84.46L60.0599 84.754C59.7986 85.2113 59.4253 85.5613 58.9399 85.804C58.4546 86.0467 57.9226 86.168 57.3439 86.168ZM57.4979 84.698C57.9366 84.698 58.3286 84.5907 58.6739 84.376C59.0286 84.1613 59.3039 83.8673 59.4999 83.494C59.7053 83.1113 59.8079 82.682 59.8079 82.206C59.8079 81.73 59.7053 81.3053 59.4999 80.932C59.3039 80.5587 59.0286 80.2647 58.6739 80.05C58.3286 79.8353 57.9366 79.728 57.4979 79.728C57.0593 79.728 56.6626 79.8353 56.3079 80.05C55.9533 80.2647 55.6779 80.5587 55.4819 80.932C55.2859 81.3053 55.1879 81.73 55.1879 82.206C55.1879 82.682 55.2859 83.1113 55.4819 83.494C55.6779 83.8673 55.9486 84.1613 56.2939 84.376C56.6486 84.5907 57.0499 84.698 57.4979 84.698ZM66.7228 86.168C65.9948 86.168 65.3415 85.9953 64.7628 85.65C64.1935 85.2953 63.7408 84.8193 63.4048 84.222C63.0782 83.6247 62.9148 82.9527 62.9148 82.206C62.9148 81.4593 63.0828 80.7873 63.4188 80.19C63.7548 79.5927 64.2075 79.1213 64.7768 78.776C65.3462 78.4307 65.9902 78.258 66.7088 78.258C67.3155 78.258 67.8522 78.3793 68.3188 78.622C68.7855 78.8647 69.1542 79.2007 69.4248 79.63L69.1868 79.994V75.402H70.7548V86H69.2568V84.46L69.4388 84.754C69.1775 85.2113 68.8042 85.5613 68.3188 85.804C67.8335 86.0467 67.3015 86.168 66.7228 86.168ZM66.8768 84.698C67.3155 84.698 67.7075 84.5907 68.0528 84.376C68.4075 84.1613 68.6828 83.8673 68.8788 83.494C69.0842 83.1113 69.1868 82.682 69.1868 82.206C69.1868 81.73 69.0842 81.3053 68.8788 80.932C68.6828 80.5587 68.4075 80.2647 68.0528 80.05C67.7075 79.8353 67.3155 79.728 66.8768 79.728C66.4382 79.728 66.0415 79.8353 65.6868 80.05C65.3322 80.2647 65.0568 80.5587 64.8608 80.932C64.6648 81.3053 64.5668 81.73 64.5668 82.206C64.5668 82.682 64.6648 83.1113 64.8608 83.494C65.0568 83.8673 65.3275 84.1613 65.6728 84.376C66.0275 84.5907 66.4288 84.698 66.8768 84.698ZM75.049 86V78.426H76.631V86H75.049ZM75.049 77.39V75.57H76.631V77.39H75.049ZM78.4806 86V78.426H79.9926V80.064L79.7966 79.812C79.9553 79.2987 80.2446 78.9113 80.6646 78.65C81.0846 78.3887 81.5653 78.258 82.1066 78.258C82.7133 78.258 83.25 78.4213 83.7166 78.748C84.1926 79.0653 84.51 79.49 84.6686 80.022L84.2206 80.064C84.4446 79.4573 84.7853 79.0047 85.2426 78.706C85.7093 78.4073 86.2413 78.258 86.8386 78.258C87.3613 78.258 87.8326 78.3793 88.2526 78.622C88.682 78.8647 89.0226 79.2007 89.2746 79.63C89.5266 80.0593 89.6526 80.5493 89.6526 81.1V86H88.0706V81.534C88.0706 81.1513 88.0006 80.8293 87.8606 80.568C87.73 80.2973 87.5433 80.092 87.3006 79.952C87.0673 79.8027 86.792 79.728 86.4746 79.728C86.1573 79.728 85.8773 79.8027 85.6346 79.952C85.392 80.092 85.2006 80.2973 85.0606 80.568C84.9206 80.8387 84.8506 81.1607 84.8506 81.534V86H83.2826V81.534C83.2826 81.1513 83.2126 80.8293 83.0726 80.568C82.942 80.2973 82.7553 80.092 82.5126 79.952C82.2793 79.8027 81.9993 79.728 81.6726 79.728C81.3553 79.728 81.0753 79.8027 80.8326 79.952C80.59 80.092 80.3986 80.2973 80.2586 80.568C80.128 80.8387 80.0626 81.1607 80.0626 81.534V86H78.4806ZM93.6139 86.168C93.1005 86.168 92.6479 86.0793 92.2559 85.902C91.8732 85.7153 91.5745 85.4633 91.3599 85.146C91.1452 84.8193 91.0379 84.4367 91.0379 83.998C91.0379 83.5873 91.1265 83.2187 91.3039 82.892C91.4905 82.5653 91.7752 82.29 92.1579 82.066C92.5405 81.842 93.0212 81.6833 93.5999 81.59L96.2319 81.156V82.402L93.9079 82.808C93.4879 82.8827 93.1799 83.018 92.9839 83.214C92.7879 83.4007 92.6899 83.6433 92.6899 83.942C92.6899 84.2313 92.7972 84.4693 93.0119 84.656C93.2359 84.8333 93.5205 84.922 93.8659 84.922C94.2952 84.922 94.6685 84.8287 94.9859 84.642C95.3125 84.4553 95.5645 84.208 95.7419 83.9C95.9192 83.5827 96.0079 83.2327 96.0079 82.85V80.904C96.0079 80.5307 95.8679 80.2273 95.5879 79.994C95.3172 79.7513 94.9532 79.63 94.4959 79.63C94.0759 79.63 93.7072 79.742 93.3899 79.966C93.0819 80.1807 92.8532 80.4607 92.7039 80.806L91.3879 80.148C91.5279 79.7747 91.7565 79.448 92.0739 79.168C92.3912 78.8787 92.7599 78.6547 93.1799 78.496C93.6092 78.3373 94.0619 78.258 94.5379 78.258C95.1352 78.258 95.6625 78.37 96.1199 78.594C96.5865 78.818 96.9459 79.1307 97.1979 79.532C97.4592 79.924 97.5899 80.3813 97.5899 80.904V86H96.0779V84.628L96.3999 84.67C96.2225 84.978 95.9939 85.244 95.7139 85.468C95.4432 85.692 95.1305 85.8647 94.7759 85.986C94.4305 86.1073 94.0432 86.168 93.6139 86.168ZM103.094 89.08C102.543 89.08 102.034 88.9913 101.568 88.814C101.101 88.6367 100.7 88.3893 100.364 88.072C100.028 87.764 99.7756 87.4 99.6076 86.98L101.064 86.378C101.194 86.7327 101.432 87.0267 101.778 87.26C102.132 87.4933 102.566 87.61 103.08 87.61C103.481 87.61 103.84 87.5307 104.158 87.372C104.475 87.2227 104.727 86.9987 104.914 86.7C105.1 86.4107 105.194 86.0607 105.194 85.65V83.942L105.474 84.264C105.212 84.7493 104.848 85.118 104.382 85.37C103.924 85.622 103.406 85.748 102.828 85.748C102.128 85.748 101.498 85.5847 100.938 85.258C100.378 84.9313 99.9343 84.4833 99.6076 83.914C99.2903 83.3447 99.1316 82.7053 99.1316 81.996C99.1316 81.2773 99.2903 80.638 99.6076 80.078C99.9343 79.518 100.373 79.0747 100.924 78.748C101.474 78.4213 102.104 78.258 102.814 78.258C103.392 78.258 103.906 78.384 104.354 78.636C104.811 78.8787 105.184 79.2333 105.474 79.7L105.264 80.092V78.426H106.762V85.65C106.762 86.3033 106.603 86.8867 106.286 87.4C105.978 87.9227 105.548 88.3333 104.998 88.632C104.447 88.9307 103.812 89.08 103.094 89.08ZM103.01 84.278C103.43 84.278 103.803 84.18 104.13 83.984C104.456 83.7787 104.713 83.508 104.9 83.172C105.096 82.8267 105.194 82.4393 105.194 82.01C105.194 81.5807 105.096 81.1933 104.9 80.848C104.704 80.5027 104.442 80.232 104.116 80.036C103.789 79.8307 103.42 79.728 103.01 79.728C102.58 79.728 102.198 79.8307 101.862 80.036C101.526 80.232 101.26 80.5027 101.064 80.848C100.877 81.184 100.784 81.5713 100.784 82.01C100.784 82.43 100.877 82.8127 101.064 83.158C101.26 83.5033 101.526 83.7787 101.862 83.984C102.198 84.18 102.58 84.278 103.01 84.278ZM112.169 86.168C111.413 86.168 110.741 85.9953 110.153 85.65C109.575 85.2953 109.122 84.8193 108.795 84.222C108.469 83.6153 108.305 82.9387 108.305 82.192C108.305 81.4267 108.469 80.75 108.795 80.162C109.131 79.574 109.579 79.112 110.139 78.776C110.699 78.4307 111.334 78.258 112.043 78.258C112.613 78.258 113.121 78.356 113.569 78.552C114.017 78.748 114.395 79.0187 114.703 79.364C115.011 79.7 115.245 80.0873 115.403 80.526C115.571 80.9647 115.655 81.4313 115.655 81.926C115.655 82.0473 115.651 82.1733 115.641 82.304C115.632 82.4347 115.613 82.556 115.585 82.668H109.551V81.408H114.689L113.933 81.982C114.027 81.5247 113.994 81.1187 113.835 80.764C113.686 80.4 113.453 80.1153 113.135 79.91C112.827 79.6953 112.463 79.588 112.043 79.588C111.623 79.588 111.25 79.6953 110.923 79.91C110.597 80.1153 110.345 80.414 110.167 80.806C109.99 81.1887 109.92 81.6553 109.957 82.206C109.911 82.7193 109.981 83.1673 110.167 83.55C110.363 83.9327 110.634 84.2313 110.979 84.446C111.334 84.6607 111.735 84.768 112.183 84.768C112.641 84.768 113.028 84.6653 113.345 84.46C113.672 84.2547 113.929 83.9887 114.115 83.662L115.403 84.292C115.254 84.6467 115.021 84.9687 114.703 85.258C114.395 85.538 114.022 85.762 113.583 85.93C113.154 86.0887 112.683 86.168 112.169 86.168Z" fill="white"/>
<path d="M36.2817 116.144C35.6737 116.144 35.1217 116 34.6257 115.712C34.1297 115.416 33.7337 115.016 33.4377 114.512C33.1497 114 33.0057 113.42 33.0057 112.772C33.0057 112.132 33.1497 111.56 33.4377 111.056C33.7257 110.552 34.1137 110.156 34.6017 109.868C35.0977 109.572 35.6577 109.424 36.2817 109.424C36.9057 109.424 37.4617 109.568 37.9497 109.856C38.4457 110.144 38.8337 110.54 39.1137 111.044C39.4017 111.548 39.5457 112.124 39.5457 112.772C39.5457 113.428 39.3977 114.012 39.1017 114.524C38.8057 115.028 38.4097 115.424 37.9137 115.712C37.4257 116 36.8817 116.144 36.2817 116.144ZM36.2817 115.244C36.7137 115.244 37.1017 115.136 37.4457 114.92C37.7977 114.704 38.0737 114.408 38.2737 114.032C38.4817 113.656 38.5857 113.236 38.5857 112.772C38.5857 112.308 38.4817 111.892 38.2737 111.524C38.0737 111.156 37.7977 110.864 37.4457 110.648C37.1017 110.432 36.7137 110.324 36.2817 110.324C35.8497 110.324 35.4577 110.432 35.1057 110.648C34.7617 110.864 34.4857 111.156 34.2777 111.524C34.0697 111.892 33.9657 112.308 33.9657 112.772C33.9657 113.236 34.0697 113.656 34.2777 114.032C34.4857 114.408 34.7617 114.704 35.1057 114.92C35.4577 115.136 35.8497 115.244 36.2817 115.244ZM41.133 116V109.568H42.033V110.624L41.913 110.468C42.065 110.164 42.293 109.924 42.597 109.748C42.909 109.572 43.285 109.484 43.725 109.484H44.133V110.384H43.569C43.105 110.384 42.733 110.528 42.453 110.816C42.173 111.104 42.033 111.512 42.033 112.04V116H41.133ZM47.3587 116V107.06H50.2987C51.1867 107.06 51.9587 107.244 52.6147 107.612C53.2707 107.972 53.7787 108.488 54.1387 109.16C54.4987 109.824 54.6787 110.612 54.6787 111.524C54.6787 112.428 54.4987 113.216 54.1387 113.888C53.7787 114.56 53.2707 115.08 52.6147 115.448C51.9587 115.816 51.1867 116 50.2987 116H47.3587ZM48.3187 115.1H50.2987C50.9867 115.1 51.5827 114.956 52.0867 114.668C52.5907 114.372 52.9787 113.956 53.2507 113.42C53.5307 112.884 53.6707 112.252 53.6707 111.524C53.6707 110.796 53.5307 110.168 53.2507 109.64C52.9707 109.104 52.5787 108.692 52.0747 108.404C51.5707 108.108 50.9787 107.96 50.2987 107.96H48.3187V115.1ZM56.133 116V109.568H57.033V110.624L56.913 110.468C57.065 110.164 57.293 109.924 57.597 109.748C57.909 109.572 58.285 109.484 58.725 109.484H59.133V110.384H58.569C58.105 110.384 57.733 110.528 57.453 110.816C57.173 111.104 57.033 111.512 57.033 112.04V116H56.133ZM63.1997 116.144C62.5917 116.144 62.0397 116 61.5437 115.712C61.0477 115.416 60.6517 115.016 60.3557 114.512C60.0677 114 59.9237 113.42 59.9237 112.772C59.9237 112.132 60.0677 111.56 60.3557 111.056C60.6437 110.552 61.0317 110.156 61.5197 109.868C62.0157 109.572 62.5757 109.424 63.1997 109.424C63.8237 109.424 64.3797 109.568 64.8677 109.856C65.3637 110.144 65.7517 110.54 66.0317 111.044C66.3197 111.548 66.4637 112.124 66.4637 112.772C66.4637 113.428 66.3157 114.012 66.0197 114.524C65.7237 115.028 65.3277 115.424 64.8317 115.712C64.3437 116 63.7997 116.144 63.1997 116.144ZM63.1997 115.244C63.6317 115.244 64.0197 115.136 64.3637 114.92C64.7157 114.704 64.9917 114.408 65.1917 114.032C65.3997 113.656 65.5037 113.236 65.5037 112.772C65.5037 112.308 65.3997 111.892 65.1917 111.524C64.9917 111.156 64.7157 110.864 64.3637 110.648C64.0197 110.432 63.6317 110.324 63.1997 110.324C62.7677 110.324 62.3757 110.432 62.0237 110.648C61.6797 110.864 61.4037 111.156 61.1957 111.524C60.9877 111.892 60.8837 112.308 60.8837 112.772C60.8837 113.236 60.9877 113.656 61.1957 114.032C61.4037 114.408 61.6797 114.704 62.0237 114.92C62.3757 115.136 62.7677 115.244 63.1997 115.244ZM68.051 118.4V109.568H68.951V111.008L68.807 110.756C69.063 110.348 69.403 110.024 69.827 109.784C70.259 109.544 70.751 109.424 71.303 109.424C71.911 109.424 72.451 109.572 72.923 109.868C73.403 110.156 73.779 110.552 74.051 111.056C74.331 111.56 74.471 112.136 74.471 112.784C74.471 113.424 74.331 114 74.051 114.512C73.779 115.016 73.403 115.416 72.923 115.712C72.451 116 71.911 116.144 71.303 116.144C70.751 116.144 70.251 116.02 69.803 115.772C69.363 115.516 69.031 115.156 68.807 114.692L68.951 114.56V118.4H68.051ZM71.255 115.244C71.687 115.244 72.071 115.136 72.407 114.92C72.751 114.704 73.019 114.412 73.211 114.044C73.411 113.668 73.511 113.248 73.511 112.784C73.511 112.312 73.411 111.892 73.211 111.524C73.019 111.156 72.751 110.864 72.407 110.648C72.071 110.432 71.687 110.324 71.255 110.324C70.823 110.324 70.431 110.432 70.079 110.648C69.735 110.864 69.459 111.16 69.251 111.536C69.051 111.904 68.951 112.32 68.951 112.784C68.951 113.248 69.051 113.668 69.251 114.044C69.459 114.412 69.735 114.704 70.079 114.92C70.431 115.136 70.823 115.244 71.255 115.244ZM78.2259 116V107.06H79.1859V116H78.2259ZM81.1642 116V109.568H82.0642V110.792L81.9202 110.612C82.0962 110.236 82.3562 109.944 82.7002 109.736C83.0522 109.528 83.4362 109.424 83.8522 109.424C84.3482 109.424 84.7962 109.564 85.1962 109.844C85.5962 110.124 85.8802 110.488 86.0482 110.936L85.7962 110.948C85.9562 110.452 86.2322 110.076 86.6242 109.82C87.0242 109.556 87.4642 109.424 87.9442 109.424C88.3762 109.424 88.7722 109.528 89.1322 109.736C89.5002 109.944 89.7922 110.232 90.0082 110.6C90.2322 110.96 90.3442 111.368 90.3442 111.824V116H89.4442V112.172C89.4442 111.78 89.3722 111.448 89.2282 111.176C89.0922 110.904 88.9042 110.696 88.6642 110.552C88.4242 110.4 88.1482 110.324 87.8362 110.324C87.5322 110.324 87.2562 110.4 87.0082 110.552C86.7602 110.696 86.5642 110.908 86.4202 111.188C86.2762 111.46 86.2042 111.788 86.2042 112.172V116H85.3042V112.172C85.3042 111.78 85.2322 111.448 85.0882 111.176C84.9522 110.904 84.7642 110.696 84.5242 110.552C84.2842 110.4 84.0082 110.324 83.6962 110.324C83.3842 110.324 83.1042 110.4 82.8562 110.552C82.6162 110.696 82.4242 110.908 82.2802 111.188C82.1362 111.46 82.0642 111.788 82.0642 112.172V116H81.1642ZM93.9227 116.144C93.5147 116.144 93.1507 116.068 92.8307 115.916C92.5107 115.756 92.2587 115.54 92.0747 115.268C91.8907 114.996 91.7987 114.684 91.7987 114.332C91.7987 113.996 91.8707 113.692 92.0147 113.42C92.1587 113.14 92.3827 112.904 92.6867 112.712C92.9907 112.52 93.3787 112.384 93.8507 112.304L96.3707 111.884V112.7L94.0667 113.084C93.6027 113.164 93.2667 113.312 93.0587 113.528C92.8587 113.744 92.7587 114 92.7587 114.296C92.7587 114.584 92.8707 114.828 93.0947 115.028C93.3267 115.228 93.6227 115.328 93.9827 115.328C94.4227 115.328 94.8067 115.236 95.1347 115.052C95.4627 114.86 95.7187 114.604 95.9027 114.284C96.0867 113.964 96.1787 113.608 96.1787 113.216V111.584C96.1787 111.2 96.0387 110.888 95.7587 110.648C95.4787 110.408 95.1147 110.288 94.6667 110.288C94.2747 110.288 93.9307 110.388 93.6347 110.588C93.3387 110.78 93.1187 111.032 92.9747 111.344L92.1587 110.9C92.2787 110.628 92.4667 110.38 92.7227 110.156C92.9867 109.932 93.2867 109.756 93.6227 109.628C93.9587 109.492 94.3067 109.424 94.6667 109.424C95.1387 109.424 95.5547 109.516 95.9147 109.7C96.2827 109.884 96.5667 110.14 96.7667 110.468C96.9747 110.788 97.0787 111.16 97.0787 111.584V116H96.1787V114.716L96.3107 114.848C96.1987 115.088 96.0227 115.308 95.7827 115.508C95.5507 115.7 95.2747 115.856 94.9547 115.976C94.6427 116.088 94.2987 116.144 93.9227 116.144ZM101.978 118.64C101.538 118.64 101.13 118.572 100.754 118.436C100.386 118.3 100.066 118.112 99.7939 117.872C99.5299 117.64 99.3259 117.368 99.1819 117.056L100.01 116.612C100.138 116.916 100.366 117.18 100.694 117.404C101.022 117.628 101.442 117.74 101.954 117.74C102.346 117.74 102.706 117.664 103.034 117.512C103.362 117.36 103.626 117.136 103.826 116.84C104.026 116.544 104.126 116.18 104.126 115.748V114.32L104.27 114.452C104.046 114.916 103.714 115.276 103.274 115.532C102.834 115.78 102.354 115.904 101.834 115.904C101.234 115.904 100.694 115.76 100.214 115.472C99.7339 115.184 99.3539 114.796 99.0739 114.308C98.8019 113.812 98.6659 113.264 98.6659 112.664C98.6659 112.056 98.8019 111.508 99.0739 111.02C99.3539 110.532 99.7299 110.144 100.202 109.856C100.682 109.568 101.226 109.424 101.834 109.424C102.354 109.424 102.826 109.544 103.25 109.784C103.682 110.024 104.022 110.348 104.27 110.756L104.126 111.008V109.568H105.026V115.748C105.026 116.3 104.894 116.792 104.63 117.224C104.374 117.664 104.014 118.008 103.55 118.256C103.094 118.512 102.57 118.64 101.978 118.64ZM101.882 115.004C102.298 115.004 102.674 114.9 103.01 114.692C103.346 114.476 103.614 114.192 103.814 113.84C104.022 113.48 104.126 113.088 104.126 112.664C104.126 112.24 104.022 111.852 103.814 111.5C103.614 111.14 103.346 110.856 103.01 110.648C102.674 110.432 102.298 110.324 101.882 110.324C101.458 110.324 101.074 110.432 100.73 110.648C100.386 110.856 100.114 111.136 99.9139 111.488C99.7219 111.84 99.6259 112.232 99.6259 112.664C99.6259 113.088 99.7219 113.48 99.9139 113.84C100.114 114.192 100.382 114.476 100.718 114.692C101.062 114.9 101.45 115.004 101.882 115.004ZM109.803 116.144C109.203 116.144 108.659 116 108.171 115.712C107.691 115.416 107.311 115.012 107.031 114.5C106.751 113.988 106.611 113.408 106.611 112.76C106.611 112.112 106.747 111.54 107.019 111.044C107.291 110.54 107.659 110.144 108.123 109.856C108.595 109.568 109.123 109.424 109.707 109.424C110.171 109.424 110.583 109.512 110.943 109.688C111.311 109.856 111.623 110.088 111.879 110.384C112.135 110.672 112.331 111 112.467 111.368C112.603 111.728 112.671 112.1 112.671 112.484C112.671 112.564 112.667 112.656 112.659 112.76C112.651 112.856 112.639 112.956 112.623 113.06H107.187V112.22H112.107L111.675 112.58C111.747 112.14 111.695 111.748 111.519 111.404C111.351 111.052 111.107 110.776 110.787 110.576C110.467 110.368 110.107 110.264 109.707 110.264C109.307 110.264 108.935 110.368 108.591 110.576C108.255 110.784 107.991 111.076 107.799 111.452C107.607 111.82 107.531 112.26 107.571 112.772C107.531 113.284 107.611 113.732 107.811 114.116C108.019 114.492 108.299 114.784 108.651 114.992C109.011 115.2 109.395 115.304 109.803 115.304C110.275 115.304 110.671 115.192 110.991 114.968C111.311 114.744 111.571 114.464 111.771 114.128L112.539 114.536C112.411 114.824 112.215 115.092 111.951 115.34C111.687 115.58 111.371 115.776 111.003 115.928C110.643 116.072 110.243 116.144 109.803 116.144ZM118.757 116.072C118.181 116.072 117.737 115.904 117.425 115.568C117.113 115.232 116.957 114.752 116.957 114.128V110.468H115.769V109.568H116.069C116.341 109.568 116.557 109.48 116.717 109.304C116.877 109.12 116.957 108.892 116.957 108.62V108.08H117.857V109.568H119.273V110.468H117.857V114.128C117.857 114.344 117.889 114.536 117.953 114.704C118.017 114.864 118.125 114.992 118.277 115.088C118.437 115.184 118.649 115.232 118.913 115.232C118.977 115.232 119.053 115.228 119.141 115.22C119.229 115.212 119.305 115.204 119.369 115.196V116C119.273 116.024 119.165 116.04 119.045 116.048C118.925 116.064 118.829 116.072 118.757 116.072ZM123.727 116.144C123.119 116.144 122.567 116 122.071 115.712C121.575 115.416 121.179 115.016 120.883 114.512C120.595 114 120.451 113.42 120.451 112.772C120.451 112.132 120.595 111.56 120.883 111.056C121.171 110.552 121.559 110.156 122.047 109.868C122.543 109.572 123.103 109.424 123.727 109.424C124.351 109.424 124.907 109.568 125.395 109.856C125.891 110.144 126.279 110.54 126.559 111.044C126.847 111.548 126.991 112.124 126.991 112.772C126.991 113.428 126.843 114.012 126.547 114.524C126.251 115.028 125.855 115.424 125.359 115.712C124.871 116 124.327 116.144 123.727 116.144ZM123.727 115.244C124.159 115.244 124.547 115.136 124.891 114.92C125.243 114.704 125.519 114.408 125.719 114.032C125.927 113.656 126.031 113.236 126.031 112.772C126.031 112.308 125.927 111.892 125.719 111.524C125.519 111.156 125.243 110.864 124.891 110.648C124.547 110.432 124.159 110.324 123.727 110.324C123.295 110.324 122.903 110.432 122.551 110.648C122.207 110.864 121.931 111.156 121.723 111.524C121.515 111.892 121.411 112.308 121.411 112.772C121.411 113.236 121.515 113.656 121.723 114.032C121.931 114.408 122.207 114.704 122.551 114.92C122.903 115.136 123.295 115.244 123.727 115.244ZM63.2586 132.144C62.6266 132.144 62.0706 132.012 61.5906 131.748C61.1106 131.484 60.7386 131.124 60.4746 130.668C60.2106 130.204 60.0786 129.676 60.0786 129.084V123.06H61.0386V129.084C61.0386 129.516 61.1306 129.896 61.3146 130.224C61.5066 130.544 61.7666 130.796 62.0946 130.98C62.4306 131.156 62.8186 131.244 63.2586 131.244C63.6986 131.244 64.0826 131.156 64.4106 130.98C64.7466 130.796 65.0066 130.544 65.1906 130.224C65.3826 129.896 65.4786 129.516 65.4786 129.084V123.06H66.4386V129.084C66.4386 129.676 66.3066 130.204 66.0426 130.668C65.7786 131.124 65.4066 131.484 64.9266 131.748C64.4546 132.012 63.8986 132.144 63.2586 132.144ZM68.3849 134.4V125.568H69.2849V127.008L69.1409 126.756C69.3969 126.348 69.7369 126.024 70.1609 125.784C70.5929 125.544 71.0849 125.424 71.6369 125.424C72.2449 125.424 72.7849 125.572 73.2569 125.868C73.7369 126.156 74.1129 126.552 74.3849 127.056C74.6649 127.56 74.8049 128.136 74.8049 128.784C74.8049 129.424 74.6649 130 74.3849 130.512C74.1129 131.016 73.7369 131.416 73.2569 131.712C72.7849 132 72.2449 132.144 71.6369 132.144C71.0849 132.144 70.5849 132.02 70.1369 131.772C69.6969 131.516 69.3649 131.156 69.1409 130.692L69.2849 130.56V134.4H68.3849ZM71.5889 131.244C72.0209 131.244 72.4049 131.136 72.7409 130.92C73.0849 130.704 73.3529 130.412 73.5449 130.044C73.7449 129.668 73.8449 129.248 73.8449 128.784C73.8449 128.312 73.7449 127.892 73.5449 127.524C73.3529 127.156 73.0849 126.864 72.7409 126.648C72.4049 126.432 72.0209 126.324 71.5889 126.324C71.1569 126.324 70.7649 126.432 70.4129 126.648C70.0689 126.864 69.7929 127.16 69.5849 127.536C69.3849 127.904 69.2849 128.32 69.2849 128.784C69.2849 129.248 69.3849 129.668 69.5849 130.044C69.7929 130.412 70.0689 130.704 70.4129 130.92C70.7649 131.136 71.1569 131.244 71.5889 131.244ZM76.3888 132V122.916H77.2888V132H76.3888ZM82.143 132.144C81.535 132.144 80.983 132 80.487 131.712C79.991 131.416 79.595 131.016 79.299 130.512C79.011 130 78.867 129.42 78.867 128.772C78.867 128.132 79.011 127.56 79.299 127.056C79.587 126.552 79.975 126.156 80.463 125.868C80.959 125.572 81.519 125.424 82.143 125.424C82.767 125.424 83.323 125.568 83.811 125.856C84.307 126.144 84.695 126.54 84.975 127.044C85.263 127.548 85.407 128.124 85.407 128.772C85.407 129.428 85.259 130.012 84.963 130.524C84.667 131.028 84.271 131.424 83.775 131.712C83.287 132 82.743 132.144 82.143 132.144ZM82.143 131.244C82.575 131.244 82.963 131.136 83.307 130.92C83.659 130.704 83.935 130.408 84.135 130.032C84.343 129.656 84.447 129.236 84.447 128.772C84.447 128.308 84.343 127.892 84.135 127.524C83.935 127.156 83.659 126.864 83.307 126.648C82.963 126.432 82.575 126.324 82.143 126.324C81.711 126.324 81.319 126.432 80.967 126.648C80.623 126.864 80.347 127.156 80.139 127.524C79.931 127.892 79.827 128.308 79.827 128.772C79.827 129.236 79.931 129.656 80.139 130.032C80.347 130.408 80.623 130.704 80.967 130.92C81.319 131.136 81.711 131.244 82.143 131.244ZM88.8543 132.144C88.4463 132.144 88.0823 132.068 87.7623 131.916C87.4423 131.756 87.1903 131.54 87.0063 131.268C86.8223 130.996 86.7303 130.684 86.7303 130.332C86.7303 129.996 86.8023 129.692 86.9463 129.42C87.0903 129.14 87.3143 128.904 87.6183 128.712C87.9223 128.52 88.3103 128.384 88.7823 128.304L91.3023 127.884V128.7L88.9983 129.084C88.5343 129.164 88.1983 129.312 87.9903 129.528C87.7903 129.744 87.6903 130 87.6903 130.296C87.6903 130.584 87.8023 130.828 88.0263 131.028C88.2583 131.228 88.5543 131.328 88.9143 131.328C89.3543 131.328 89.7383 131.236 90.0663 131.052C90.3943 130.86 90.6503 130.604 90.8343 130.284C91.0183 129.964 91.1103 129.608 91.1103 129.216V127.584C91.1103 127.2 90.9703 126.888 90.6903 126.648C90.4103 126.408 90.0463 126.288 89.5983 126.288C89.2063 126.288 88.8623 126.388 88.5663 126.588C88.2703 126.78 88.0503 127.032 87.9063 127.344L87.0903 126.9C87.2103 126.628 87.3983 126.38 87.6543 126.156C87.9183 125.932 88.2183 125.756 88.5543 125.628C88.8903 125.492 89.2383 125.424 89.5983 125.424C90.0703 125.424 90.4863 125.516 90.8463 125.7C91.2143 125.884 91.4983 126.14 91.6983 126.468C91.9063 126.788 92.0103 127.16 92.0103 127.584V132H91.1103V130.716L91.2423 130.848C91.1303 131.088 90.9543 131.308 90.7143 131.508C90.4823 131.7 90.2063 131.856 89.8863 131.976C89.5743 132.088 89.2303 132.144 88.8543 132.144ZM96.7655 132.144C96.1655 132.144 95.6255 132 95.1455 131.712C94.6655 131.416 94.2855 131.016 94.0055 130.512C93.7335 130 93.5975 129.424 93.5975 128.784C93.5975 128.136 93.7335 127.56 94.0055 127.056C94.2855 126.552 94.6615 126.156 95.1335 125.868C95.6135 125.572 96.1575 125.424 96.7655 125.424C97.3175 125.424 97.8095 125.544 98.2415 125.784C98.6735 126.024 99.0135 126.348 99.2615 126.756L99.1175 127.008V122.916H100.018V132H99.1175V130.56L99.2615 130.692C99.0375 131.156 98.7015 131.516 98.2535 131.772C97.8135 132.02 97.3175 132.144 96.7655 132.144ZM96.8135 131.244C97.2455 131.244 97.6335 131.136 97.9775 130.92C98.3295 130.704 98.6055 130.412 98.8055 130.044C99.0135 129.668 99.1175 129.248 99.1175 128.784C99.1175 128.32 99.0135 127.904 98.8055 127.536C98.6055 127.16 98.3295 126.864 97.9775 126.648C97.6335 126.432 97.2455 126.324 96.8135 126.324C96.3895 126.324 96.0055 126.432 95.6615 126.648C95.3175 126.864 95.0455 127.156 94.8455 127.524C94.6535 127.892 94.5575 128.312 94.5575 128.784C94.5575 129.248 94.6535 129.668 94.8455 130.044C95.0455 130.412 95.3135 130.704 95.6495 130.92C95.9935 131.136 96.3815 131.244 96.8135 131.244Z" fill="#707784"/>
</svg>
