<svg xmlns="http://www.w3.org/2000/svg" version="1.1" xmlns:xlink="http://www.w3.org/1999/xlink" viewBox="0 0 4.1977072265625 5.6665374692001205"><g transform="matrix(0.8571428571428571,0,0,0.8571428571428571,0.5996724609375002,3.5155325467349336)"><g transform="matrix(1,0,0,1,0,0)" clip-path="url(#SvgjsClipPath60363)"><g clip-path="url(#SvgjsClipPath6036126309938-aff6-4049-bdf4-272531c303cb)"><path d=" M 3.2637864752877026 -1.7647047861312393 C 3.2637864752877026 -0.9281427290331412 2.585619071973169 -0.2499753257186077 1.749057014875071 -0.2499753257186077 C 0.9124949577769729 -0.2499753257186077 0.23432755446243947 -0.9281427290331412 0.23432755446243947 -1.7647047861312393 C 0.23432755446243947 -2.6012668432293373 0.9124949577769729 -3.279434246543871 1.749057014875071 -3.279434246543871 C 2.585619071973169 -3.279434246543871 3.2637864752877026 -2.6012668432293373 3.2637864752877026 -1.7647047861312393 Z" fill="#e9c3ad" transform="matrix(1,0,0,1,0,0)" fill-rule="nonzero"></path></g><g clip-path="url(#SvgjsClipPath6036126309938-aff6-4049-bdf4-272531c303cb)"><path d=" M 2.3163434183732043 -2.3557031740476964 C 2.264040326327572 -2.4046598813116176 2.1949808700453164 -2.4317380393808685 2.1233411893199934 -2.4313791950789163 L 1.1613403063838361 -2.4313791950789163 C 1.0896703206885547 -2.431743209958301 1.0205782005396915 -2.404666091060197 0.9682393802050536 -2.3557031740476964 C 0.9174496043730422 -2.308608421414277 0.8884435230979897 -2.2425742505534254 0.8881219885231588 -2.1733108859933195 L 0.8881219885231588 -1.7360085968716024 C 0.8884495369257858 -1.6668179534623058 0.9174603251913747 -1.6008624132785756 0.9682393802050568 -1.5538630516311485 C 0.9756416646228453 -1.5468555557156423 1.051293011372672 -1.4724379230354472 1.174072235582437 -1.3517806870254492 L 1.174072235582437 -1.3380617865711426 C 1.1740471007574507 -1.333653820683783 1.1753826918874033 -1.3293454622000618 1.177896749198295 -1.3257246458748237 C 1.18037559986138 -1.3221398119833025 1.1838869218066512 -1.3193944401682502 1.1879638560064913 -1.317853550110572 C 1.1891864383343012 -1.3173830349210724 1.1904503238606174 -1.3170278252633498 1.191739021059566 -1.3167925560106888 C 1.193009835944789 -1.3165674834162209 1.194297625701397 -1.3164519125406278 1.1955882089568162 -1.316447116071192 C 1.1986073043378624 -1.3164500010563855 1.201591917860193 -1.317088960571025 1.204347578851203 -1.3183223614570323 C 1.2050780724097183 -1.3187878105079012 1.2057785605157618 -1.3192987547734862 1.2064448927695777 -1.3198521669033758 C 1.4383831378603698 -1.0919358296795822 1.8140490720632783 -0.7227345572015453 2.220557858006985 -0.32515786112197453 C 2.7277666999205987 -0.4918381657029709 3.110007905147228 -0.9128844905874463 3.227021796012672 -1.4337979983745759 C 2.727614340625686 -1.9418167779675926 2.3339361810061536 -2.3390727083890583 2.3163434183732043 -2.3557031740476964 Z" fill="#8a615c" transform="matrix(1,0,0,1,0,0)" fill-rule="nonzero"></path></g><g clip-path="url(#SvgjsClipPath6036126309938-aff6-4049-bdf4-272531c303cb)"><path d=" M 1.1955635346754243 -1.3165458131967624 C 1.1929660817956564 -1.316550983702271 1.1903911306018027 -1.3170275168777572 1.1879638560064936 -1.3179522472361431 C 1.179596816024508 -1.3211077380797223 1.1740623064106956 -1.329119505993147 1.174072235582437 -1.3380617865711424 L 1.174072235582437 -1.4782857277255022 L 1.1613403063838361 -1.4782857277255022 C 1.0106791442003917 -1.4782857277255022 0.8881219885231599 -1.5939094103314022 0.8881219885231599 -1.7360085968716024 L 0.8881219885231599 -2.1733355602747113 C 0.8881219885231599 -2.315632141066053 1.0106791442003917 -2.4314038693603077 1.1613403063838361 -2.4314038693603077 L 2.1233165150385993 -2.4314038693603077 C 2.2738296315336894 -2.4314038693603077 2.396436135773707 -2.315632141066052 2.396436135773707 -2.1733355602747113 L 2.396436135773707 -1.7360332711529947 C 2.396436135773707 -1.5939340846127945 2.2739036543778672 -1.4783104020068942 2.1233165150385993 -1.4783104020068942 L 1.3483220107772445 -1.4783104020068942 L 1.2117992118317784 -1.3238494004889827 C 1.207699492391543 -1.319179739280005 1.2017774327467068 -1.3165157124488926 1.1955635346754265 -1.3165458131967627 Z M 1.1613403063838361 -2.3883719226115483 C 1.034415802900108 -2.3883719226115483 0.9311045867091339 -2.291895482366335 0.9311045867091339 -2.1733108859933186 L 0.9311045867091339 -1.7360085968716024 C 0.9311045867091339 -1.6175720461869414 1.034415802900108 -1.5213423487556545 1.1613403063838361 -1.5213423487556545 L 1.1955635346754243 -1.5213423487556545 C 1.2012653893791256 -1.521348906386893 1.2067355963344604 -1.519086756907248 1.2107674191272317 -1.515054934114475 C 1.214799241920005 -1.511023111321702 1.217061391399651 -1.5055529043663685 1.2170548337684117 -1.4998510496626676 L 1.2170548337684117 -1.3949113308997794 L 1.322389341033583 -1.5140881100262193 C 1.3264736101044852 -1.518701755073641 1.3323399121149349 -1.521342938520917 1.3385016467829756 -1.5213423487556539 L 2.1233165150385993 -1.5213423487556539 C 2.250191669959544 -1.5213423487556545 2.353453537587732 -1.6175720461869414 2.353453537587732 -1.7360085968716024 L 2.353453537587732 -2.1733355602747113 C 2.353453537587732 -2.291920156647728 2.250191669959544 -2.388396596892941 2.1233165150385993 -2.388396596892941 Z" fill="#f4e7e7" transform="matrix(1,0,0,1,0,0)" fill-rule="nonzero"></path></g><g clip-path="url(#SvgjsClipPath6036126309938-aff6-4049-bdf4-272531c303cb)"><path d=" M 2.276815219582197 -1.010831466741982 C 2.270652801215265 -1.0108276903016784 2.264785250293795 -1.013469436045801 2.2607029138328043 -1.0180857054714179 L 2.124204789168734 -1.1725960555521144 L 1.7836997059503343 -1.1725960555521144 C 1.782959477508555 -1.1725960555521144 1.5563755514799638 -1.1571746296817156 1.5074958000411476 -1.3475120363445223 C 1.50454671473634 -1.3590122774060112 1.511470061959941 -1.3707278617827907 1.5229665744743326 -1.3736914489021113 C 1.5344587330019355 -1.3766248647873836 1.546157385245694 -1.3697050016205568 1.5491213127505274 -1.358220674468927 C 1.5890443000438152 -1.202994770227844 1.7741754333327764 -1.2149617967032733 1.7820958776598121 -1.2155293051753042 L 2.1339017817560393 -1.2155293051753042 C 2.1400933592943305 -1.2154899563603085 2.1459700537018414 -1.2127942249807155 2.150038761786824 -1.2081270207575123 L 2.255348594770601 -1.088950241631073 L 2.255348594770601 -1.1938899603939608 C 2.255342045833085 -1.1995940812105408 2.2576034097713693 -1.2050668182551298 2.2616345202056998 -1.2091025568300307 C 2.265665630640035 -1.213138295404931 2.271135769287572 -1.2154059375277777 2.2768398938635888 -1.2154059337683405 L 2.311038447873785 -1.2154059337683405 C 2.437987625638905 -1.215405933768341 2.541274167548487 -1.311635631199628 2.541274167548487 -1.4300721818842885 L 2.541274167548487 -1.8676212138199313 C 2.5412095069748086 -1.8996578148911503 2.5334586563263275 -1.9312112232625231 2.5186725257928275 -1.9596316091330874 C 2.516068312385763 -1.9647059735493524 2.5155880104730355 -1.9706074207786568 2.517337410112318 -1.9760361133100857 C 2.5190868097516024 -1.9814648058415152 2.522922414567705 -1.985975449367923 2.5279994041592486 -1.9885745412066411 C 2.538574539192675 -1.993979504006911 2.5515290444426224 -1.98979386249819 2.5569423362328116 -1.9792229885588315 C 2.574839408057769 -1.9447414472638769 2.584206147785943 -1.90647065793187 2.5842567657344624 -1.8676212138199313 L 2.5842567657344624 -1.4302942504168217 C 2.5842567657344624 -1.2881950638766215 2.4617242843386222 -1.1725960555521144 2.311038447873787 -1.1725960555521144 L 2.2982818443937925 -1.1725960555521144 L 2.2982818443937925 -1.0323474401163621 C 2.298291773565538 -1.0234051595383677 2.292757263951723 -1.0153933916249427 2.2843902239697402 -1.0122379007813627 C 2.2819732676044997 -1.011306998856686 2.2794052494781596 -1.010830200702936 2.276815219582197 -1.010831466741982 Z" fill="#f4e7e7" transform="matrix(1,0,0,1,0,0)" fill-rule="nonzero"></path></g><g clip-path="url(#SvgjsClipPath6036126309938-aff6-4049-bdf4-272531c303cb)"><path d=" M 1.6339514921784175 -1.697467369336302 C 1.6301853171612293 -1.6974689474549458 1.6264850675436986 -1.6984556806862872 1.623218179772622 -1.7003295859778482 C 1.546481164641517 -1.744521223952062 1.3649031278730974 -1.861650037722913 1.3366017271157422 -1.9949158315245485 C 1.3264167304724541 -2.04093995424829 1.3371316041280954 -2.089111713381409 1.36586542484741 -2.126479099910092 C 1.3928123072973317 -2.1699403371585797 1.4388270529571652 -2.197990735567979 1.4898043402826289 -2.202031749534349 C 1.55351333483842 -2.204499177673612 1.6077967539022207 -2.1615659280504227 1.6339514921784175 -2.13674360096943 C 1.6600815561732205 -2.1615659280504227 1.7153766207741217 -2.2039563434829743 1.7780739697928145 -2.2020317495343487 C 1.8290550320293673 -2.198002390900065 1.8750746334982111 -2.169949032409601 1.9020128852280334 -2.1264790999100924 L 1.9020128852280334 -2.1264790999100924 C 1.930746705947348 -2.089111713381409 1.9414615796029893 -2.04093995424829 1.9312765829597012 -1.9949158315245485 C 1.9029751822023457 -1.8616747120043053 1.7215451911222819 -1.744521223952062 1.6446601303028237 -1.7003295859778482 C 1.6414022645672288 -1.6984555599655082 1.6377099042068688 -1.6974686618046744 1.6339514921784175 -1.6974673693363025 Z M 1.4947391965611552 -2.159123174192552 C 1.4935548310543094 -2.159123174192552 1.492271768421892 -2.159123174192552 1.4912107743220098 -2.159123174192552 C 1.4535890710379287 -2.1551242015998415 1.4200384300090059 -2.1336649520395277 1.4006314873296364 -2.1011879614826388 C 1.379087042711375 -2.0737037500552686 1.3710253081027395 -2.037996606429153 1.3786713768901906 -2.0039219442328617 C 1.4026301041224412 -1.8911111297057221 1.5682438808298236 -1.7829144057990063 1.6339514921784197 -1.7439537154800315 C 1.6996591035270139 -1.7829390800803986 1.865272880234396 -1.8911604782685074 1.8891822589038632 -2.0039219442328617 C 1.8968456952320227 -2.0379892017132235 1.888801907839175 -2.0736970957476952 1.867271497027201 -2.101187961482639 L 1.867271497027201 -2.101187961482639 C 1.8478480615499986 -2.1336603634560944 1.8142929813880018 -2.155116607524823 1.7766675357534356 -2.159123174192553 C 1.7107378558723063 -2.161590602331816 1.6508287006509814 -2.0926753344021796 1.6503352150231292 -2.0919844545231854 C 1.6461284372328613 -2.0873867265133432 1.640183352432723 -2.084768196893888 1.6339514921784197 -2.084768196893888 C 1.6277196319241143 -2.084768196893888 1.621774547123976 -2.0873867265133432 1.617567769333708 -2.0919844545231854 C 1.61695091229889 -2.0926013115580013 1.5595338594982227 -2.159123174192552 1.4947391965611552 -2.159123174192552 Z" fill="#f4e7e7" transform="matrix(1,0,0,1,0,0)" fill-rule="nonzero"></path></g><g clip-path="url(#SvgjsClipPath6036126309938-aff6-4049-bdf4-272531c303cb)"><path d=" M 1.1955635346754243 -1.3165458131967624 C 1.1929660817956564 -1.316550983702271 1.1903911306018027 -1.3170275168777572 1.1879638560064936 -1.3179522472361431 C 1.179596816024508 -1.3211077380797223 1.1740623064106956 -1.329119505993147 1.174072235582437 -1.3380617865711424 L 1.174072235582437 -1.4782857277255022 L 1.1613403063838361 -1.4782857277255022 C 1.0106791442003917 -1.4782857277255022 0.8881219885231599 -1.5939094103314022 0.8881219885231599 -1.7360085968716024 L 0.8881219885231599 -2.1733355602747113 C 0.8881219885231599 -2.315632141066053 1.0106791442003917 -2.4314038693603077 1.1613403063838361 -2.4314038693603077 L 2.1233165150385993 -2.4314038693603077 C 2.2738296315336894 -2.4314038693603077 2.396436135773707 -2.315632141066052 2.396436135773707 -2.1733355602747113 L 2.396436135773707 -1.7360332711529947 C 2.396436135773707 -1.5939340846127945 2.2739036543778672 -1.4783104020068942 2.1233165150385993 -1.4783104020068942 L 1.3483220107772445 -1.4783104020068942 L 1.2117992118317784 -1.3238494004889827 C 1.207699492391543 -1.319179739280005 1.2017774327467068 -1.3165157124488926 1.1955635346754265 -1.3165458131967627 Z M 1.1613403063838361 -2.3883719226115483 C 1.034415802900108 -2.3883719226115483 0.9311045867091339 -2.291895482366335 0.9311045867091339 -2.1733108859933186 L 0.9311045867091339 -1.7360085968716024 C 0.9311045867091339 -1.6175720461869414 1.034415802900108 -1.5213423487556545 1.1613403063838361 -1.5213423487556545 L 1.1955635346754243 -1.5213423487556545 C 1.2012653893791256 -1.521348906386893 1.2067355963344604 -1.519086756907248 1.2107674191272317 -1.515054934114475 C 1.214799241920005 -1.511023111321702 1.217061391399651 -1.5055529043663685 1.2170548337684117 -1.4998510496626676 L 1.2170548337684117 -1.3949113308997794 L 1.322389341033583 -1.5140881100262193 C 1.3264736101044852 -1.518701755073641 1.3323399121149349 -1.521342938520917 1.3385016467829756 -1.5213423487556539 L 2.1233165150385993 -1.5213423487556539 C 2.250191669959544 -1.5213423487556545 2.353453537587732 -1.6175720461869414 2.353453537587732 -1.7360085968716024 L 2.353453537587732 -2.1733355602747113 C 2.353453537587732 -2.291920156647728 2.250191669959544 -2.388396596892941 2.1233165150385993 -2.388396596892941 Z" fill="#f4e7e7" transform="matrix(1,0,0,1,0,0)" fill-rule="nonzero"></path></g><g clip-path="url(#SvgjsClipPath6036126309938-aff6-4049-bdf4-272531c303cb)"><path d=" M 2.276815219582197 -1.010831466741982 C 2.270652801215265 -1.0108276903016784 2.264785250293795 -1.013469436045801 2.2607029138328043 -1.0180857054714179 L 2.124204789168734 -1.1725960555521144 L 1.7836997059503343 -1.1725960555521144 C 1.782959477508555 -1.1725960555521144 1.5563755514799638 -1.1571746296817156 1.5074958000411476 -1.3475120363445223 C 1.50454671473634 -1.3590122774060112 1.511470061959941 -1.3707278617827907 1.5229665744743326 -1.3736914489021113 C 1.5344587330019355 -1.3766248647873836 1.546157385245694 -1.3697050016205568 1.5491213127505274 -1.358220674468927 C 1.5890443000438152 -1.202994770227844 1.7741754333327764 -1.2149617967032733 1.7820958776598121 -1.2155293051753042 L 2.1339017817560393 -1.2155293051753042 C 2.1400933592943305 -1.2154899563603085 2.1459700537018414 -1.2127942249807155 2.150038761786824 -1.2081270207575123 L 2.255348594770601 -1.088950241631073 L 2.255348594770601 -1.1938899603939608 C 2.255342045833085 -1.1995940812105408 2.2576034097713693 -1.2050668182551298 2.2616345202056998 -1.2091025568300307 C 2.265665630640035 -1.213138295404931 2.271135769287572 -1.2154059375277777 2.2768398938635888 -1.2154059337683405 L 2.311038447873785 -1.2154059337683405 C 2.437987625638905 -1.215405933768341 2.541274167548487 -1.311635631199628 2.541274167548487 -1.4300721818842885 L 2.541274167548487 -1.8676212138199313 C 2.5412095069748086 -1.8996578148911503 2.5334586563263275 -1.9312112232625231 2.5186725257928275 -1.9596316091330874 C 2.516068312385763 -1.9647059735493524 2.5155880104730355 -1.9706074207786568 2.517337410112318 -1.9760361133100857 C 2.5190868097516024 -1.9814648058415152 2.522922414567705 -1.985975449367923 2.5279994041592486 -1.9885745412066411 C 2.538574539192675 -1.993979504006911 2.5515290444426224 -1.98979386249819 2.5569423362328116 -1.9792229885588315 C 2.574839408057769 -1.9447414472638769 2.584206147785943 -1.90647065793187 2.5842567657344624 -1.8676212138199313 L 2.5842567657344624 -1.4302942504168217 C 2.5842567657344624 -1.2881950638766215 2.4617242843386222 -1.1725960555521144 2.311038447873787 -1.1725960555521144 L 2.2982818443937925 -1.1725960555521144 L 2.2982818443937925 -1.0323474401163621 C 2.298291773565538 -1.0234051595383677 2.292757263951723 -1.0153933916249427 2.2843902239697402 -1.0122379007813627 C 2.2819732676044997 -1.011306998856686 2.2794052494781596 -1.010830200702936 2.276815219582197 -1.010831466741982 Z" fill="#f4e7e7" transform="matrix(1,0,0,1,0,0)" fill-rule="nonzero"></path></g><g clip-path="url(#SvgjsClipPath6036126309938-aff6-4049-bdf4-272531c303cb)"><path d=" M 1.6339514921784175 -1.697467369336302 C 1.6301853171612293 -1.6974689474549458 1.6264850675436986 -1.6984556806862872 1.623218179772622 -1.7003295859778482 C 1.546481164641517 -1.744521223952062 1.3649031278730974 -1.861650037722913 1.3366017271157422 -1.9949158315245485 C 1.3264167304724541 -2.04093995424829 1.3371316041280954 -2.089111713381409 1.36586542484741 -2.126479099910092 C 1.3928123072973317 -2.1699403371585797 1.4388270529571652 -2.197990735567979 1.4898043402826289 -2.202031749534349 C 1.55351333483842 -2.204499177673612 1.6077967539022207 -2.1615659280504227 1.6339514921784175 -2.13674360096943 C 1.6600815561732205 -2.1615659280504227 1.7153766207741217 -2.2039563434829743 1.7780739697928145 -2.2020317495343487 C 1.8290550320293673 -2.198002390900065 1.8750746334982111 -2.169949032409601 1.9020128852280334 -2.1264790999100924 L 1.9020128852280334 -2.1264790999100924 C 1.930746705947348 -2.089111713381409 1.9414615796029893 -2.04093995424829 1.9312765829597012 -1.9949158315245485 C 1.9029751822023457 -1.8616747120043053 1.7215451911222819 -1.744521223952062 1.6446601303028237 -1.7003295859778482 C 1.6414022645672288 -1.6984555599655082 1.6377099042068688 -1.6974686618046744 1.6339514921784175 -1.6974673693363025 Z M 1.4947391965611552 -2.159123174192552 C 1.4935548310543094 -2.159123174192552 1.492271768421892 -2.159123174192552 1.4912107743220098 -2.159123174192552 C 1.4535890710379287 -2.1551242015998415 1.4200384300090059 -2.1336649520395277 1.4006314873296364 -2.1011879614826388 C 1.379087042711375 -2.0737037500552686 1.3710253081027395 -2.037996606429153 1.3786713768901906 -2.0039219442328617 C 1.4026301041224412 -1.8911111297057221 1.5682438808298236 -1.7829144057990063 1.6339514921784197 -1.7439537154800315 C 1.6996591035270139 -1.7829390800803986 1.865272880234396 -1.8911604782685074 1.8891822589038632 -2.0039219442328617 C 1.8968456952320227 -2.0379892017132235 1.888801907839175 -2.0736970957476952 1.867271497027201 -2.101187961482639 L 1.867271497027201 -2.101187961482639 C 1.8478480615499986 -2.1336603634560944 1.8142929813880018 -2.155116607524823 1.7766675357534356 -2.159123174192553 C 1.7107378558723063 -2.161590602331816 1.6508287006509814 -2.0926753344021796 1.6503352150231292 -2.0919844545231854 C 1.6461284372328613 -2.0873867265133432 1.640183352432723 -2.084768196893888 1.6339514921784197 -2.084768196893888 C 1.6277196319241143 -2.084768196893888 1.621774547123976 -2.0873867265133432 1.617567769333708 -2.0919844545231854 C 1.61695091229889 -2.0926013115580013 1.5595338594982227 -2.159123174192552 1.4947391965611552 -2.159123174192552 Z" fill="#f4e7e7" transform="matrix(1,0,0,1,0,0)" fill-rule="nonzero"></path></g></g><g><path d=" M 0.045 1.0725000000000002 C 0.045 1.3110000000000002 0.2535 1.4190000000000003 0.465 1.4190000000000003 C 0.858 1.4190000000000003 0.9555 1.1370000000000002 0.9450000000000001 0.8010000000000002 L 0.9195 2.220446049250313e-16 L 0.795 2.220446049250313e-16 L 0.8235 0.7695000000000002 C 0.837 1.1310000000000002 0.762 1.2960000000000003 0.46950000000000003 1.2960000000000003 C 0.2895 1.2960000000000003 0.168 1.2075000000000002 0.168 1.0620000000000003 C 0.168 1.0020000000000002 0.1845 0.9330000000000002 0.216 0.8490000000000002 L 0.108 0.8070000000000002 C 0.0645 0.9135000000000002 0.045 1.0005000000000002 0.045 1.0725000000000002 M 1.477510986328125 1.0785000000000002 C 1.521010986328125 1.0785000000000002 1.552510986328125 1.0470000000000002 1.552510986328125 1.0140000000000002 C 1.552510986328125 0.9825000000000002 1.534510986328125 0.9555000000000001 1.492510986328125 0.9555000000000001 C 1.3200109863281249 0.9555000000000001 1.3080109863281248 0.9195000000000002 1.302010986328125 0.7725000000000002 L 1.272010986328125 2.220446049250313e-16 L 1.149010986328125 2.220446049250313e-16 L 1.1790109863281248 0.8205000000000002 C 1.185010986328125 1.0005000000000002 1.236010986328125 1.0785000000000002 1.477510986328125 1.0785000000000002 M 2.202034423828125 1.098 C 2.625034423828125 1.098 2.763034423828125 0.9480000000000002 2.763034423828125 0.7710000000000001 C 2.763034423828125 0.6270000000000002 2.661034423828125 0.5175000000000002 2.497534423828125 0.5175000000000002 C 2.265034423828125 0.5175000000000002 2.0340344238281247 0.7545000000000002 1.905034423828125 0.9555000000000001 C 1.807534423828125 0.9360000000000002 1.7850344238281248 0.9015000000000002 1.7850344238281248 0.8445000000000001 C 1.7850344238281248 0.8175000000000001 1.7970344238281248 0.7575000000000002 1.816534423828125 0.6870000000000002 L 1.707034423828125 0.6585000000000001 C 1.654534423828125 0.8835000000000002 1.6320344238281248 0.9555000000000001 1.4910344238281248 0.9555000000000001 L 1.4760344238281249 1.0785000000000002 C 1.5690344238281249 1.0785000000000002 1.6515344238281249 1.0695000000000001 1.723534423828125 0.9660000000000002 C 1.7625344238281249 1.0575 1.881034423828125 1.098 2.202034423828125 1.098 M 2.488534423828125 0.6405000000000002 C 2.601034423828125 0.6405000000000002 2.647534423828125 0.7185000000000001 2.647534423828125 0.7830000000000001 C 2.647534423828125 0.9090000000000001 2.4930344238281252 0.9750000000000002 2.229034423828125 0.9750000000000002 C 2.1495344238281247 0.9750000000000002 2.085034423828125 0.9735000000000001 2.029534423828125 0.9705000000000001 C 2.1165344238281247 0.8505000000000001 2.307034423828125 0.6405000000000002 2.488534423828125 0.6405000000000002 M 2.88905712890625 1.6874853515625001 L 3.2250571289062497 1.5899853515625002 L 3.2250571289062497 1.5044853515625 L 2.88905712890625 1.6034853515625003 M 2.91455712890625 1.4160000000000001 C 3.2445571289062496 1.3785000000000003 3.41555712890625 1.2150000000000003 3.41555712890625 0.9345000000000001 C 3.41555712890625 0.7455000000000002 3.33605712890625 0.5655000000000001 3.1755571289062496 0.5655000000000001 C 3.0225571289062496 0.5655000000000001 2.92355712890625 0.7395000000000002 2.92355712890625 0.8925000000000002 C 2.92355712890625 1.0215 3.0090571289062495 1.0830000000000002 3.16205712890625 1.0830000000000002 C 3.2010571289062497 1.0830000000000002 3.24155712890625 1.0785000000000002 3.27755712890625 1.0680000000000003 C 3.2235571289062497 1.2195000000000003 3.07805712890625 1.2675 2.88755712890625 1.2930000000000001 M 3.04205712890625 0.8625000000000002 C 3.04205712890625 0.7815000000000002 3.0930571289062496 0.6885000000000001 3.1635571289062496 0.6885000000000001 C 3.2475571289062497 0.6885000000000001 3.29855712890625 0.8010000000000002 3.29855712890625 0.9255000000000002 C 3.29855712890625 0.9330000000000002 3.29855712890625 0.9405000000000001 3.29855712890625 0.9465000000000001 C 3.2610571289062498 0.9585000000000001 3.21605712890625 0.9645000000000001 3.1755571289062496 0.9645000000000001 C 3.07805712890625 0.9645000000000001 3.04205712890625 0.9255000000000002 3.04205712890625 0.8625000000000002" fill="#8a615c" fill-rule="nonzero"></path></g><g></g></g><defs><clipPath id="SvgjsClipPath60363"><path d=" M 0.23432755446243947 -3.279434246543871 h 3.029434246543871 v 3.029434246543871 h -3.029434246543871 Z"></path></clipPath><clipPath id="SvgjsClipPath6036126309938-aff6-4049-bdf4-272531c303cb"><path d=" M 0.23432755446243947 -3.279434246543871 L 3.2637618010063103 -3.279434246543871 L 3.2637618010063103 -0.25 L 0.23432755446243947 -0.25 Z"></path></clipPath></defs></svg>