<svg width="17" height="15" viewBox="0 0 17 15" fill="none" xmlns="http://www.w3.org/2000/svg">
<path d="M11.111 13.4284H5.55544C2.34711 13.4284 1.74989 12.2428 1.59711 11.0902L1.07628 6.67291C0.999887 6.09386 0.979053 5.23908 1.70128 4.59938C2.32628 4.04791 3.361 3.7832 4.861 3.7832H11.8054C13.3124 3.7832 14.3471 4.05342 14.9652 4.59938C15.6874 5.23908 15.6666 6.09386 15.5902 6.67842L15.0693 11.0847C14.9166 12.2428 14.3193 13.4284 11.111 13.4284ZM4.861 4.60489C3.68739 4.60489 2.88183 4.78688 2.47211 5.15085C2.13183 5.44864 2.02072 5.90636 2.111 6.59019L2.63183 11.0075C2.74989 11.8788 3.0485 12.6012 5.55544 12.6012H11.111C13.611 12.6012 13.9166 11.8788 14.0346 11.002L14.5554 6.5957C14.6457 5.90636 14.5346 5.44864 14.1943 5.15085C13.7846 4.78688 12.9791 4.60489 11.8054 4.60489H4.861Z" fill="#333333"/>
<path d="M11.1111 4.60487C10.8263 4.60487 10.5902 4.41737 10.5902 4.19126V3.75009C10.5902 2.76847 10.5902 2.39898 8.88883 2.39898H7.77772C6.07633 2.39898 6.07633 2.76847 6.07633 3.75009V4.19126C6.07633 4.41737 5.84022 4.60487 5.5555 4.60487C5.27078 4.60487 5.03467 4.41737 5.03467 4.19126V3.75009C5.03467 2.7795 5.03467 1.57178 7.77772 1.57178H8.88883C11.6319 1.57178 11.6319 2.7795 11.6319 3.75009V4.19126C11.6319 4.41737 11.3958 4.60487 11.1111 4.60487Z" fill="#333333"/>
<path d="M8.33355 10.1195C6.42383 10.1195 6.42383 9.18201 6.42383 8.61951V8.0515C6.42383 7.27393 6.65994 7.08643 7.63911 7.08643H9.02799C10.0072 7.08643 10.2433 7.27393 10.2433 8.0515V8.60297C10.2433 9.1765 10.2433 10.1195 8.33355 10.1195ZM7.46549 7.91363C7.46549 7.95775 7.46549 8.00738 7.46549 8.0515V8.61951C7.46549 9.18753 7.46549 9.29231 8.33355 9.29231C9.20161 9.29231 9.20161 9.20407 9.20161 8.614V8.0515C9.20161 8.00738 9.20161 7.95775 9.20161 7.91363C9.14605 7.91363 9.08355 7.91363 9.02799 7.91363H7.63911C7.58355 7.91363 7.52105 7.91363 7.46549 7.91363Z" fill="#333333"/>
<path d="M9.72237 9.02775C9.46543 9.02775 9.23626 8.87334 9.20848 8.66378C9.17376 8.43768 9.37515 8.22812 9.65987 8.20054C11.4932 8.01856 13.2501 7.46709 14.7293 6.61231C14.9585 6.47444 15.2849 6.51856 15.4585 6.70606C15.6251 6.88804 15.5765 7.14723 15.3404 7.2851C13.7154 8.2226 11.7988 8.82371 9.78487 9.02775C9.76404 9.02775 9.7432 9.02775 9.72237 9.02775Z" fill="#333333"/>
<path d="M6.94446 9.03291C6.92363 9.03291 6.90279 9.03291 6.88196 9.03291C4.97918 8.86196 3.12501 8.31049 1.52085 7.43916C1.28474 7.31232 1.22224 7.05313 1.38196 6.86563C1.54168 6.67813 1.86807 6.6285 2.10418 6.75534C3.56946 7.54946 5.25696 8.05129 6.99307 8.21122C7.27779 8.23879 7.48613 8.44284 7.4514 8.66894C7.43057 8.8785 7.20835 9.03291 6.94446 9.03291Z" fill="#333333"/>
</svg>
